<svg id="Layer_1" data-name="Layer 1" xmlns="http://www.w3.org/2000/svg" viewBox="0 0 71.43 68.56"><defs><style>.cls-1{fill:#231f20;}</style></defs><title>tupper-1</title><path class="cls-1" d="M16.16,53.13c.49,13.06,4.31,24.35,17.25,29.61,12.22,5,28.48,5.58,39.87-2C83,74.36,88,57,85.78,46c-1.19-5.8-8.27-2.3-12.3-2.15-8.28.29-16.59,0-24.87.2-9.34.17-18.7.41-28,.93-2.17.12-4,0-5.06,2.13-1.51,3-.07,8,1,11s5.9,1.71,4.83-1.33c-.88-2.51-2-5.67-1-8.31L18.6,50.17c3.23-.89,7.35-.45,10.68-.58q5.31-.21,10.63-.35,10.62-.3,21.26-.35c6.35,0,13,.58,19.3-.81l1.76-.45c-1.18-.35-1.61,0-1.29,1-.54,1.19,0,3.83-.11,5.21a42.41,42.41,0,0,1-2.2,10.38C76.17,71.34,72.41,76.46,65.11,79a38.8,38.8,0,0,1-20.37,1.63c-6.22-1.06-12.65-2.93-17.25-7.49-5.34-5.3-6.07-12.89-6.33-20-.12-3.21-5.12-3.22-5,0Z" transform="translate(-14.88 -17.9)"/><path class="cls-1" d="M27.32,37.65c-.54-1,1.07-2.59,1.5-3.46a9,9,0,0,0,.81-3.83A18.56,18.56,0,0,1,32.11,22c1.84-2.65-2.49-5.15-4.32-2.52-1,1.48-1.26,3.31-2,4.94a14.56,14.56,0,0,0-1.19,5.36c-.3,3.88-3.8,6.36-1.62,10.4,1.53,2.83,5.85.31,4.32-2.53Z" transform="translate(-14.88 -17.9)"/><path class="cls-1" d="M45.32,41.54c3-2,5.18-4.13,5.2-7.91a25,25,0,0,1,1-6c.54-2.4,0-4.88.22-7.3.34-3.2-4.66-3.18-5,0-.2,1.78.2,3.55,0,5.32a25.7,25.7,0,0,1-1.13,3.75c-.84,3.24.48,5.63-2.85,7.86-2.66,1.79-.16,6.12,2.52,4.32Z" transform="translate(-14.88 -17.9)"/><path class="cls-1" d="M75.41,39a17.23,17.23,0,0,0-3.76-10c-1.21-1.6-2.86-3-3.36-5-.38-1.57-.26-2.66-1.18-4.09-1.72-2.71-6-.21-4.31,2.52.68,1.08.45,2.38.74,3.57a8.31,8.31,0,0,0,1.93,3.4C67.9,32.36,70.26,35,70.41,39c.13,3.21,5.13,3.22,5,0Z" transform="translate(-14.88 -17.9)"/><path class="cls-1" d="M42.43,66.35c7.71-1.47,17-1.84,23.06-7.35,2.39-2.16-1.16-5.69-3.54-3.53-5.08,4.6-14.41,4.83-20.84,6.06-3.16.6-1.83,5.42,1.32,4.82Z" transform="translate(-14.88 -17.9)"/><path class="cls-1" d="M51.46,61.71a50.13,50.13,0,0,1-5.23,9.21c-1.87,2.62,2.46,5.12,4.32,2.53a50.47,50.47,0,0,0,5.23-9.21c1.28-2.92-3-5.47-4.32-2.53Z" transform="translate(-14.88 -17.9)"/></svg>