<svg id="Layer_1" data-name="Layer 1" xmlns="http://www.w3.org/2000/svg" viewBox="0 0 84.71 70.04"><defs><style>.cls-1{fill:#231f20;}</style></defs><title>tupper</title><path class="cls-1" d="M12.26,57.55C14.57,54,16.83,49,19.84,46l-2.43.64c5.05.8,11,9.57,16.21,6.25,2.55-1.61,3.85-5.58,5.16-8.1l3-5.78c1.64-3.14,1.65-5.18,6.52-4,6.39,1.55,10.2,7.07,16.31,1.46,3.66-3.35,6.52-8.55,12-7.28,4.22,1,8.37,2.44,12.51,3.67,3.1.91,4.42-3.92,1.33-4.83C83,25.86,73.75,20.63,67.25,26.88,65.64,28.43,63.16,32,61.07,33c-3.54,1.57-6.5-.47-9.54-1.91s-6.5-2.92-9.7-.82-4.76,7-6.51,10.39c-1,2-2.29,6.27-4.5,6.91-1.95.58-4.6-2.17-6.36-3.17-2.22-1.26-5.36-3.54-7.9-2.08-1.49.85-2.42,3.16-3.3,4.52L7.94,55c-1.75,2.71,2.58,5.22,4.32,2.52Z" transform="translate(-7.54 -23.91)"/><path class="cls-1" d="M20.64,66.4l22.67-1.11c3.2-.16,3.24-5,0-5A136.62,136.62,0,0,0,27,61.41c-2.89.37-7.23.1-8.72,3-1.3,2.6-1.38,6.43.59,8.63,2.7,3,6.76,2.24,10.15,1.1L26,72.45A64,64,0,0,1,27.1,89.53,2.53,2.53,0,0,0,29.6,92c2.58-.1,7.37.71,9.46-1.25s1.53-7.49,1.5-10.13c0-2.15-1-5.2.84-6.82.66-.57,2.15-.42,2.91-1.18C46.59,70.37,46,65,45.94,62.14c-.06-3.22-5.06-3.23-5,0,0,2.68.16,5.52-.81,8.08l1.75-1.75C39,69.6,36.59,69.7,35.6,73.12c-1.42,4.84,1.15,10.34-.72,15.23l1.75-1.75c-2.18.57-4.78.34-7,.43l2.5,2.5a69.34,69.34,0,0,0-1.32-18.41,2.53,2.53,0,0,0-3.08-1.75c-1.36,1-2.45.66-3.25-1-1.55-.55-2-1.42-1.33-2.61l-1.75,1.75c6.23-2.63,15.24-2.17,21.94-2.25v-5L20.64,61.4c-3.2.15-3.22,5.16,0,5Z" transform="translate(-7.54 -23.91)"/><path class="cls-1" d="M57.26,57.09c-4,5.1-6.53,10.36-7,16.9a52.92,52.92,0,0,0,.62,11.24c.33,2.32.22,5.82,2,7.54,2.19,2.08,8.79,1.29,10.33-1.36,1.22-2.08.08-5.59-.2-7.75-.4-3.1-1.9-7.88-1.45-10.93l-1.75,1.74c6.65-2.57,14.5,1,20.58-3.91a11.23,11.23,0,0,0,2.42-14.44c-3.46-5.49-11.17-6.85-17.13-5.88A17.7,17.7,0,0,0,51.45,62.3c-1,3.06,3.8,4.37,4.83,1.33A12.83,12.83,0,0,1,67.69,55c4.84-.43,12.21,1.32,11.68,7.52-.8,9.19-15.2,4.94-20.89,7.14a2.5,2.5,0,0,0-1.74,1.75c-.58,3.94.77,8.33,1.27,12.26.06.44,1,5.16.67,5.44.29-.3-3.7-1.61-2.16.06-1.18-1.28-1-6.5-1.16-8.14a44.39,44.39,0,0,1-.2-5.29A24.8,24.8,0,0,1,60.8,60.62c2-2.51-1.56-6.07-3.54-3.53Z" transform="translate(-7.54 -23.91)"/><path class="cls-1" d="M65.35,57.85a4.08,4.08,0,0,0-.7,6.36,6,6,0,0,0,5.86,1.71,3.8,3.8,0,0,0,1.9-5.79,4.56,4.56,0,0,0-6.54-.81,2.58,2.58,0,0,0-.9,3.42,2.53,2.53,0,0,0,3.42.9,3.11,3.11,0,0,1,.43-.31c.27-.15.31-.17.13,0-.14-.12-.44-.07-.62-.28-.59-.71.09-1.72.88-1.86-.3,0-.3,0,0,0l-.45-.12c.43.13-.21-.11-.32-.18-.4-.25-.11-.11,0,.13a1.08,1.08,0,0,1-.51,1.16,2.5,2.5,0,0,0-2.52-4.32Z" transform="translate(-7.54 -23.91)"/></svg>